<svg width="226" height="226" viewBox="0 0 226 226" fill="none" xmlns="http://www.w3.org/2000/svg">
<path d="M56 33.9999C56 15.2223 71.2223 0 89.9999 0H226V136C226 154.778 210.778 170 192 170H89.9999C71.2223 170 56 154.778 56 136V33.9999Z" fill="#B0FF86"/>
<path d="M0 90C0 71.2223 15.2223 56 34 56H136C154.778 56 170 71.2223 170 90V192C170 210.778 154.778 226 136 226H0V90Z" fill="#18E1C3"/>
<path d="M136 56.002C154.778 56.002 170 71.2243 170 90.002V170H90C71.2226 170 56.001 154.778 56.001 136V56.002H136Z" fill="#00F1C5"/>
</svg>
